<?xml version="1.0" standalone="no"?><!DOCTYPE svg PUBLIC "-//W3C//DTD SVG 1.1//EN" "http://www.w3.org/Graphics/SVG/1.1/DTD/svg11.dtd"><svg class="icon" width="200px" height="200.00px" viewBox="0 0 1024 1024" version="1.1" xmlns="http://www.w3.org/2000/svg"><path d="M512 512m-512 0a512 512 0 1 0 1024 0 512 512 0 1 0-1024 0Z" fill="#69ADF4" /><path d="M512.399065 511.600935m-321.646142 0a321.646142 321.646142 0 1 0 643.292284 0 321.646142 321.646142 0 1 0-643.292284 0Z" fill="#FFFFFF" /><path d="M555.672842 568.410987a3.988253 3.988253 0 0 1-1.637762 1.616212L345.958759 680.046142c-3.48144 1.840486-7.241428-1.938656-5.384181-5.410519l111.189799-207.827305a3.990647 3.990647 0 0 1 1.697621-1.66809l208.660552-106.975676c3.496605-1.792599 7.20631 2.014479 5.323523 5.463195L555.672842 568.410987z" fill="#6CB1F5" opacity=".43" /><path d="M504.018706 512m-36.314887 0a36.314887 36.314887 0 1 0 72.629774 0 36.314887 36.314887 0 1 0-72.629774 0Z" fill="#FFFFFF" /></svg>