<?xml version="1.0" standalone="no"?><!DOCTYPE svg PUBLIC "-//W3C//DTD SVG 1.1//EN" "http://www.w3.org/Graphics/SVG/1.1/DTD/svg11.dtd"><svg class="icon" width="200px" height="200.00px" viewBox="0 0 1024 1024" version="1.1" xmlns="http://www.w3.org/2000/svg"><path d="M512 512m-512 0a512 512 0 1 0 1024 0 512 512 0 1 0-1024 0Z" fill="#FF5E7C" /><path d="M527.563523 563.14892m24.342946 0l51.87841 0q24.342946 0 24.342946 24.342946l0 0q0 24.342946-24.342946 24.342946l-51.87841 0q-24.342946 0-24.342946-24.342946l0 0q0-24.342946 24.342946-24.342946Z" fill="#FF5E7C" /><path d="M578.344505 241.833203m16.246107 16.486051l100.095065 101.573398q16.246107 16.48605-0.239944 32.732158l-107.740318 106.172229q-16.48605 16.246107-32.732157-0.239944l-100.095065-101.573398q-16.246107-16.48605 0.239943-32.732157l107.740319-106.17223q16.48605-16.246107 32.732157 0.239944Z" fill="#FFFFFF" opacity=".4" /><path d="M680.442812 255.457272m16.246107 16.48605l120.445275 122.224167q16.246107 16.48605-0.239944 32.732157l-132.260192 130.335232q-16.48605 16.246107-32.732157-0.239944l-120.445274-122.224166q-16.246107-16.48605 0.239943-32.732157l132.260192-130.335232q16.48605-16.246107 32.732157 0.239943Z" fill="#FFFFFF" opacity=".4" /><path d="M265.870466 276.53108c-13.864306 2.596315-22.999694 15.94024-20.404178 29.804546l11.623159 62.068926h-0.360755l46.034507 243.326503c5.705827 30.151732 32.05128 51.981369 62.737758 51.981369H624.440468c30.686479 0 57.031931-21.829637 62.737758-51.981369l41.557799-219.664361c2.324951-12.288798-7.099361-23.662142-19.606048-23.662142H315.681721a7.981294 7.981294 0 0 1-7.844814-6.512736l-12.161895-64.957356c-2.597113-13.864306-15.94024-22.998896-29.804546-20.40338z" fill="#FFFFFF" /><path d="M400.028034 756.461443m-40.869811 0a40.869811 40.869811 0 1 0 81.739623 0 40.869811 40.869811 0 1 0-81.739623 0Z" fill="#FFFFFF" /><path d="M578.095489 756.461443m-40.869812 0a40.869811 40.869811 0 1 0 81.739623 0 40.869811 40.869811 0 1 0-81.739623 0Z" fill="#FFFFFF" /></svg>