<?xml version="1.0" standalone="no"?><!DOCTYPE svg PUBLIC "-//W3C//DTD SVG 1.1//EN" "http://www.w3.org/Graphics/SVG/1.1/DTD/svg11.dtd"><svg class="icon" width="200px" height="200.00px" viewBox="0 0 1024 1024" version="1.1" xmlns="http://www.w3.org/2000/svg"><path d="M512 512m-512 0a512 512 0 1 0 1024 0 512 512 0 1 0-1024 0Z" fill="#FF5E7C" /><path d="M288.922837 255.007127m61.455963 0l324.04053 0q61.455963 0 61.455962 61.455963l0 393.477786q0 61.455963-61.455962 61.455963l-324.04053 0q-61.455963 0-61.455963-61.455963l0-393.477786q0-61.455963 61.455963-61.455963Z" fill="#FFFFFF" /><path d="M306.082619 277.35475c1.064705-8.247869 11.332639-24.662198 43.897116-24.342946 32.564477 0.319252 240.50352 0.132489 340.402182 0 7.848804 2.660165 24.662198 10.694934 29.131723 21.549493 0.359956 0.875548 0.762214 1.232312 1.197194 1.129353v80.678909c0 93.007613-75.398485 168.4053-168.4053 168.4053h-79.014809c-93.006815 0-168.4053-75.397687-168.4053-168.4053v-80.475386l1.197194 1.460577z" fill="#FF5B77" opacity=".4" /><path d="M447.750585 603.789668m25.141075 0l79.812939 0q25.141076 0 25.141075 25.141076l0 0q0 25.141076-25.141075 25.141075l-79.812939 0q-25.141076 0-25.141075-25.141075l0 0q0-25.141076 25.141075-25.141076Z" fill="#FF5B77" /></svg>