<?xml version="1.0" standalone="no"?><!DOCTYPE svg PUBLIC "-//W3C//DTD SVG 1.1//EN" "http://www.w3.org/Graphics/SVG/1.1/DTD/svg11.dtd"><svg class="icon" width="200px" height="200.00px" viewBox="0 0 1024 1024" version="1.1" xmlns="http://www.w3.org/2000/svg"><path d="M512 512m-512 0a512 512 0 1 0 1024 0 512 512 0 1 0-1024 0Z" fill="#FF5E7C" /><path d="M535.078709 542.391171c14.455719 8.662896 14.455719 30.320935-0.000798 38.983831L278.350815 735.220826C263.894298 743.883723 245.82385 733.054703 245.82385 715.72891V408.037263c0-17.325793 18.070447-28.154812 32.526965-19.491916l256.727894 153.845824z" fill="#FFFFFF" opacity=".4" /><path d="M483.334385 542.391171c-14.455719 8.662896-14.455719 30.320935 0.000798 38.983831L740.062279 735.220826C754.518797 743.883723 772.589244 733.054703 772.589244 715.72891V408.037263c0-17.325793-18.070447-28.154812-32.526965-19.491916L483.334385 542.391171z" fill="#FFFFFF" opacity=".4" /><path d="M479.778719 293.711613c12.901761-22.347623 45.158161-22.347623 58.06072 0l229.13257 396.869837c12.90256 22.347623-3.225241 50.282151-29.03036 50.282151H279.67571c-25.804321 0-41.93292-27.934528-29.03036-50.282151L479.778719 293.711613z" fill="#FFFFFF" /><path d="M584.201977 515.849378c1.003249-2.613076-0.92583-5.420895-3.725668-5.420895h-30.799015a3.990647 3.990647 0 0 0-3.817453 2.827773l-29.418251 96.531354c-0.471694 1.548371-2.681715 1.492502-3.075991-0.07662l-24.133038-96.262385a3.990647 3.990647 0 0 0-3.870927-3.020122h-41.185073c-2.582747 0-4.485487 2.415938-3.879707 4.926853l35.821643 148.465634a3.990647 3.990647 0 0 0 3.879707 3.054441h43.482089a3.990647 3.990647 0 0 0 3.725668-2.560399l56.996016-148.465634z" fill="#FF668B" /></svg>