<?xml version="1.0" standalone="no"?><!DOCTYPE svg PUBLIC "-//W3C//DTD SVG 1.1//EN" "http://www.w3.org/Graphics/SVG/1.1/DTD/svg11.dtd"><svg class="icon" width="200px" height="200.00px" viewBox="0 0 1024 1024" version="1.1" xmlns="http://www.w3.org/2000/svg"><path d="M512 512m-512 0a512 512 0 1 0 1024 0 512 512 0 1 0-1024 0Z" fill="#FF5E7C" /><path d="M790.14809 553.103663m-29.530787 0a29.530787 29.530787 0 1 0 59.061575 0 29.530787 29.530787 0 1 0-59.061575 0Z" fill="#FFFFFF" opacity=".4" /><path d="M233.85191 569.86438m-29.530788 0a29.530787 29.530787 0 1 0 59.061575 0 29.530787 29.530787 0 1 0-59.061575 0Z" fill="#FFFFFF" opacity=".4" /><path d="M745.452845 628.925955m-29.530787 0a29.530787 29.530787 0 1 0 59.061574 0 29.530787 29.530787 0 1 0-59.061574 0Z" fill="#FFFFFF" opacity=".4" /><path d="M280.143414 638.503507m-29.530787 0a29.530787 29.530787 0 1 0 59.061574 0 29.530787 29.530787 0 1 0-59.061574 0Z" fill="#FFFFFF" opacity=".4" /><path d="M415.864518 398.663233c-90.314725 0.757425-154.58968 22.629362-164.058688 62.442451-9.042806 38.026076 33.932471 83.908938 107.788172 123.914375-27.188277 86.064686-26.234513 153.90728 8.734728 175.208555 33.397724 20.344318 90.348246-6.317194 151.247912-64.14087 73.513303 52.43311 138.378875 72.490101 169.459629 45.84136 29.684028-25.451548 21.906257-87.811791-14.31046-163.55427 72.624187-53.659037 111.760461-109.105883 95.999801-146.877356-15.051922-36.075448-76.811972-47.954806-160.096773-36.941419-28.629699-85.596982-69.311152-139.922457-110.13148-136.617403-38.987024 3.156602-69.378195 58.175651-84.632841 140.724577z" fill="#FFFFFF" /><path d="M451.741231 514.793453m24.342947 0l79.812938 0q24.342946 0 24.342946 24.342946l0 0q0 24.342946-24.342946 24.342946l-79.812938 0q-24.342946 0-24.342947-24.342946l0 0q0-24.342946 24.342947-24.342946Z" fill="#FF5E7D" /></svg>