<?xml version="1.0" standalone="no"?><!DOCTYPE svg PUBLIC "-//W3C//DTD SVG 1.1//EN" "http://www.w3.org/Graphics/SVG/1.1/DTD/svg11.dtd"><svg class="icon" width="200px" height="200.00px" viewBox="0 0 1024 1024" version="1.1" xmlns="http://www.w3.org/2000/svg"><path d="M512 512m-512 0a512 512 0 1 0 1024 0 512 512 0 1 0-1024 0Z" fill="#EA67C9" /><path d="M221.879969 362.851168m70.235386 0l439.76929 0q70.235386 0 70.235386 70.235385l0 0q0 70.235386-70.235386 70.235386l-439.76929 0q-70.235386 0-70.235386-70.235386l0 0q0-70.235386 70.235386-70.235385Z" fill="#FFFFFF" /><path d="M284.134061 459.424823h454.135619v245.025721c0 32.61875-26.442825 59.061574-59.061574 59.061574H343.195635c-32.61875 0-59.061574-26.442825-59.061574-59.061574v-245.025721z" fill="#FFFFFF" /><path d="M477.281372 532.852726m35.516757 0l0 0q35.516758 0 35.516758 35.516758l0 71.033515q0 35.516758-35.516758 35.516758l0 0q-35.516758 0-35.516757-35.516758l0-71.033515q0-35.516758 35.516757-35.516758Z" fill="#EA3CC8" /><path d="M509.957587 312.936954l-48.875847-45.099897c-10.488218-9.676521-26.833908-9.01966-36.511227 1.46776s-9.021256 26.834706 1.466962 36.511227l60.564452 55.885019a25.88573 25.88573 0 0 0 5.60207 3.942759c9.741169 9.888823 25.643099 10.328592 35.920611 0.846017l60.564452-55.885019c10.48742-9.676521 11.144281-26.023807 1.466962-36.511227s-26.023807-11.144281-36.511227-1.46776l-43.687208 40.311121z" fill="#FFFFFF" opacity=".4" /></svg>