<?xml version="1.0" standalone="no"?><!DOCTYPE svg PUBLIC "-//W3C//DTD SVG 1.1//EN" "http://www.w3.org/Graphics/SVG/1.1/DTD/svg11.dtd"><svg class="icon" width="200px" height="200.00px" viewBox="0 0 1024 1024" version="1.1" xmlns="http://www.w3.org/2000/svg"><path d="M512 512m-512 0a512 512 0 1 0 1024 0 512 512 0 1 0-1024 0Z" fill="#FF8F41" /><path d="M241.833203 715.123928m27.934529 0l484.464536 0q27.934528 0 27.934529 27.934529l0 0q0 27.934528-27.934529 27.934528l-484.464536 0q-27.934528 0-27.934529-27.934528l0 0q0-27.934528 27.934529-27.934529Z" fill="#FFFFFF" opacity=".4" /><path d="M563.479345 367.139517v-24.742011c0-28.210681-22.869599-51.080281-51.08028-51.080281-28.210681 0-51.080281 22.869599-51.080281 51.080281v24.742011c0 28.210681 22.869599 51.080281 51.080281 51.08028 28.210681 0 51.080281-22.869599 51.08028-51.08028z m-51.08028-114.930632c-49.809659 0-90.18862 40.378962-90.188621 90.188621v24.742011c0 49.809659 40.378962 90.18862 90.188621 90.18862s90.18862-40.378962 90.18862-90.18862v-24.742011c0-49.809659-40.378962-90.18862-90.18862-90.188621z" fill="#FFFFFF" /><path d="M757.254784 675.217459c11.445973 0 21.403436-8.090638 22.804951-19.450413a281.021356 281.021356 0 0 0 2.107062-34.411348C782.166797 469.936187 661.208692 347.186282 512 347.186282S241.833203 469.936187 241.833203 621.355698a280.86173 280.86173 0 0 0 2.10786 34.411348c1.401515 11.359776 11.358977 19.450413 22.804951 19.450413h490.50877z" fill="#FFFFFF" /><path d="M292.115355 578.643804m19.953234 0l104.55495 0q19.953235 0 19.953234 19.953234l0 0q0 19.953235-19.953234 19.953235l-104.55495 0q-19.953235 0-19.953234-19.953235l0 0q0-19.953235 19.953234-19.953234Z" fill="#FF8F41" /></svg>