<?xml version="1.0" standalone="no"?><!DOCTYPE svg PUBLIC "-//W3C//DTD SVG 1.1//EN" "http://www.w3.org/Graphics/SVG/1.1/DTD/svg11.dtd"><svg class="icon" width="200px" height="200.00px" viewBox="0 0 1024 1024" version="1.1" xmlns="http://www.w3.org/2000/svg"><path d="M512 512m-512 0a512 512 0 1 0 1024 0 512 512 0 1 0-1024 0Z" fill="#50DCB6" /><path d="M634.51286 495.638348h142.86516c22.483305 0 40.704599 18.223688 40.704599 40.704598v193.147311c0 22.48091-18.221294 40.704599-40.704599 40.704599H634.51286V495.638348zM380.707716 417.421668H246.62198c-22.48091 0-40.704599 18.223688-40.704599 40.704599v271.36399c0 22.48091 18.223688 40.704599 40.704599 40.704599h134.085736V417.421668z" fill="#FFFFFF" opacity=".4" /><path d="M368.735776 308.077942c0-30.415115 24.655813-55.070928 55.070927-55.070927h170.799688c30.415115 0 55.070928 24.655813 55.070928 55.070927v462.116914H368.735776V308.077942z" fill="#FFFFFF" /><path d="M501.250793 493.123442c4.789574-6.342734 14.316845-6.342734 19.10642 0l24.306232 32.183769a11.971941 11.971941 0 0 0 5.644371 4.099991l38.119458 13.171529c7.511994 2.595517 10.456293 11.65668 5.904561 18.17181l-23.097865 33.061712a11.969546 11.969546 0 0 0-2.155747 6.634849l-0.747049 40.323891c-0.146856 7.946974-7.854391 13.54665-15.45817 11.231277l-38.580776-11.750859a11.982316 11.982316 0 0 0-6.976449 0l-38.581575 11.750859c-7.602981 2.315373-15.310516-3.284302-15.457372-11.231277l-0.747049-40.323891a11.975931 11.975931 0 0 0-2.155747-6.634849l-23.097865-33.061712c-4.551732-6.51513-1.607433-15.576293 5.904562-18.17181l38.119457-13.171529a11.966354 11.966354 0 0 0 5.643573-4.099991l24.30703-32.183769z" fill="#45D6AF" /></svg>