<?xml version="1.0" standalone="no"?><!DOCTYPE svg PUBLIC "-//W3C//DTD SVG 1.1//EN" "http://www.w3.org/Graphics/SVG/1.1/DTD/svg11.dtd"><svg class="icon" width="200px" height="200.00px" viewBox="0 0 1024 1024" version="1.1" xmlns="http://www.w3.org/2000/svg"><path d="M512 512m-512 0a512 512 0 1 0 1024 0 512 512 0 1 0-1024 0Z" fill="#50DCB6" /><path d="M442.961808 275.354638c-33.500683 0-60.657833 27.15715-60.657833 60.657833a6.385035 6.385035 0 0 1-6.385035 6.385035h-68.639127c-37.907953 0-68.639127 30.731174-68.639127 68.639127v268.969602c0 37.907953 30.731174 68.639127 68.639127 68.639127h410.238503c37.907953 0 68.639127-30.731174 68.639127-68.639127V411.036633c0-37.907953-30.731174-68.639127-68.639127-68.639127h-67.840997a6.385035 6.385035 0 0 1-6.385035-6.385035c0-33.500683-27.15715-60.657833-60.657833-60.657833H442.961808z" fill="#FFFFFF" /><path d="M512 551.10834m-92.982073 0a92.982073 92.982073 0 1 0 185.964146 0 92.982073 92.982073 0 1 0-185.964146 0Z" fill="#3BD1A9" fill-opacity=".4" /><path d="M290.519096 394.275916m24.342946 0l54.272798 0q24.342946 0 24.342946 24.342946l0 0q0 24.342946-24.342946 24.342946l-54.272798 0q-24.342946 0-24.342946-24.342946l0 0q0-24.342946 24.342946-24.342946Z" fill="#53DDB7" /></svg>