<?xml version="1.0" standalone="no"?><!DOCTYPE svg PUBLIC "-//W3C//DTD SVG 1.1//EN" "http://www.w3.org/Graphics/SVG/1.1/DTD/svg11.dtd"><svg class="icon" width="200px" height="200.00px" viewBox="0 0 1024 1024" version="1.1" xmlns="http://www.w3.org/2000/svg"><path d="M512 512m-512 0a512 512 0 1 0 1024 0 512 512 0 1 0-1024 0Z" fill="#50DCB6" /><path d="M320.848012 275.354638m31.526111 0l0 0q31.526111 0 31.526111 31.52611l0 75.024162q0 31.526111-31.526111 31.526111l0 0q-31.526111 0-31.526111-31.526111l0-75.024162q0-31.526111 31.526111-31.52611Z" fill="#FFFFFF" opacity=".4" /><path d="M640.099766 275.354638m31.526111 0l0 0q31.526111 0 31.526111 31.52611l0 75.024162q0 31.526111-31.526111 31.526111l0 0q-31.526111 0-31.526111-31.526111l0-75.024162q0-31.526111 31.526111-31.52611Z" fill="#FFFFFF" opacity=".4" /><path d="M233.05378 363.946999m71.831645 0l414.22915 0q71.831645 0 71.831645 71.831645l0 241.035074q0 71.831645-71.831645 71.831644l-414.22915 0q-71.831645 0-71.831645-71.831644l0-241.035074q0-71.831645 71.831645-71.831645Z" fill="#FFFFFF" /><path d="M595.132359 494.694161c7.574248 8.00444 7.225465 20.633241-0.778975 28.207488l-96.573655 91.385815c-7.672418 7.260583-19.673889 7.282931-27.374242 0.05108l-59.061574-55.469992c-8.032374-7.543919-8.428246-20.171922-0.884328-28.204296s20.171922-8.428246 28.204297-0.884328l45.350509 42.592175 82.910479-78.456917c8.00444-7.574248 20.633241-7.225465 28.207489 0.778975z" fill="#3DD2AA" /></svg>