<?xml version="1.0" standalone="no"?><!DOCTYPE svg PUBLIC "-//W3C//DTD SVG 1.1//EN" "http://www.w3.org/Graphics/SVG/1.1/DTD/svg11.dtd"><svg class="icon" width="200px" height="200.00px" viewBox="0 0 1024 1024" version="1.1" xmlns="http://www.w3.org/2000/svg"><path d="M512 512m-512 0a512 512 0 1 0 1024 0 512 512 0 1 0-1024 0Z" fill="#50DCB6" /><path d="M536.342946 264.978956m58.263445 0l106.151208 0q58.263445 0 58.263445 58.263445l0 106.151208q0 58.263445-58.263445 58.263445l-106.151208 0q-58.263445 0-58.263445-58.263445l0-106.151208q0-58.263445 58.263445-58.263445Z" fill="#FFFFFF" /><path d="M536.342946 535.544817m58.263445 0l106.151208 0q58.263445 0 58.263445 58.263445l0 106.151208q0 58.263445-58.263445 58.263445l-106.151208 0q-58.263445 0-58.263445-58.263445l0-106.151208q0-58.263445 58.263445-58.263445Z" fill="#FFFFFF" /><path d="M265.777085 535.544817m58.263445 0l106.151208 0q58.263445 0 58.263445 58.263445l0 106.151208q0 58.263445-58.263445 58.263445l-106.151208 0q-58.263445 0-58.263445-58.263445l0-106.151208q0-58.263445 58.263445-58.263445Z" fill="#FFFFFF" /><path d="M265.777085 264.978956m58.263445 0l106.151208 0q58.263445 0 58.263445 58.263445l0 106.151208q0 58.263445-58.263445 58.263445l-106.151208 0q-58.263445 0-58.263445-58.263445l0-106.151208q0-58.263445 58.263445-58.263445Z" fill="#FFFFFF" opacity=".4" /></svg>