<?xml version="1.0" standalone="no"?><!DOCTYPE svg PUBLIC "-//W3C//DTD SVG 1.1//EN" "http://www.w3.org/Graphics/SVG/1.1/DTD/svg11.dtd"><svg class="icon" width="200px" height="200.00px" viewBox="0 0 1024 1024" version="1.1" xmlns="http://www.w3.org/2000/svg"><path d="M512 512m-512 0a512 512 0 1 0 1024 0 512 512 0 1 0-1024 0Z" fill="#69ADF4" /><path d="M613.761496 745.452845h122.876808c32.906875 0 58.695233-28.008754 55.661543-60.455907l-30.990566-331.448767C759.408137 333.211037 742.176524 317.655495 721.550466 317.655495H613.761496v427.79735z" fill="#FFFFFF" opacity=".4" /><path d="M304.475186 277.749026c-20.698687 0-37.963024 15.825309-39.757219 36.446578l-32.247619 370.544337c-2.842139 32.643492 22.890351 60.712904 55.65835 60.712904h338.738881c32.72969 0 58.449409-28.007956 55.666332-60.618725l-31.617895-370.571473C649.152948 293.613443 631.878235 277.749026 611.15321 277.749026h-62.321135v51.479345c0 50.47051-40.915305 91.385814-91.385815 91.385815s-91.385814-40.915305-91.385814-91.385815V277.749026h-61.58526z" fill="#FFFFFF" /><path d="M410.755691 277.749026v51.479345c0 25.786762 20.903807 46.690569 46.690569 46.690569s46.690569-20.903807 46.690569-46.690569V277.749026h-93.381138z" fill="#FFFFFF" /></svg>