<?xml version="1.0" standalone="no"?><!DOCTYPE svg PUBLIC "-//W3C//DTD SVG 1.1//EN" "http://www.w3.org/Graphics/SVG/1.1/DTD/svg11.dtd"><svg class="icon" width="200px" height="200.00px" viewBox="0 0 1024 1024" version="1.1" xmlns="http://www.w3.org/2000/svg"><path d="M512 512m-512 0a512 512 0 1 0 1024 0 512 512 0 1 0-1024 0Z" fill="#FF8F41" /><path d="M677.611847 341.599376m-90.18862 0a90.18862 90.18862 0 1 0 180.377241 0 90.18862 90.18862 0 1 0-180.377241 0Z" fill="#FFFFFF" opacity=".4" /><path d="M352.773188 341.599376m-90.188621 0a90.18862 90.18862 0 1 0 180.377241 0 90.18862 90.18862 0 1 0-180.377241 0Z" fill="#FFFFFF" opacity=".4" /><path d="M353.172253 709.137958m-52.277475 0a52.277475 52.277475 0 1 0 104.554949 0 52.277475 52.277475 0 1 0-104.554949 0Z" fill="#FFFFFF" opacity=".4" /><path d="M678.010912 709.137958m-52.277475 0a52.277475 52.277475 0 1 0 104.55495 0 52.277475 52.277475 0 1 0-104.55495 0Z" fill="#FFFFFF" opacity=".4" /><path d="M515.591582 511.600935m-249.016368 0a249.016368 249.016368 0 1 0 498.032736 0 249.016368 249.016368 0 1 0-498.032736 0Z" fill="#FFFFFF" /><path d="M515.591582 338.805924c9.917556 0 17.957911 8.040355 17.957911 17.957911v143.564321l97.432443 55.102054c8.633366 4.882157 11.67344 15.838878 6.791283 24.471445-4.882157 8.633366-15.838878 11.67344-24.471445 6.791283l-106.550273-60.258768A17.957911 17.957911 0 0 1 497.633671 510.802806V356.763835c0-9.917556 8.040355-17.957911 17.957911-17.957911z" fill="#FF8F41" /></svg>