<?xml version="1.0" standalone="no"?><!DOCTYPE svg PUBLIC "-//W3C//DTD SVG 1.1//EN" "http://www.w3.org/Graphics/SVG/1.1/DTD/svg11.dtd"><svg class="icon" width="200px" height="200.00px" viewBox="0 0 1024 1024" version="1.1" xmlns="http://www.w3.org/2000/svg"><path d="M512 512m-512 0a512 512 0 1 0 1024 0 512 512 0 1 0-1024 0Z" fill="#EA67C9" /><path d="M605.590248 625.125263C666.56414 591.913503 707.940764 527.257839 707.940764 452.938426 707.940764 344.723255 620.215171 256.997662 512 256.997662S316.059236 344.723255 316.059236 452.938426c0 74.566036 41.651978 139.403673 102.957893 172.515666L361.025846 725.898675c-10.444321 18.091199 2.611479 40.704599 23.500919 40.704599h255.744599c20.88944 0 33.945241-22.6134 23.500122-40.704599l-58.181238-100.773412z" fill="#FFFFFF" /><path d="M741.783046 619.765824C790.090625 593.445911 822.871395 542.207601 822.871395 483.310441 822.871395 397.552237 753.36949 328.031177 667.63523 328.031177S512.399065 397.552237 512.399065 483.310441c0 59.092701 32.998659 110.475473 81.569621 136.716371l-45.944318 79.599838C539.749362 713.964246 550.093119 731.884645 566.64313 731.884645h202.616318c16.550011 0 26.893768-17.920399 18.618762-32.257995l-46.095164-79.860826zM431.310716 619.765824C479.618295 593.445911 512.399065 542.207601 512.399065 483.310441 512.399065 397.552237 442.89716 328.031177 357.162899 328.031177S201.926734 397.552237 201.926734 483.310441c0 59.092701 32.998659 110.475473 81.569621 136.716371l-45.944318 79.599838C229.277032 713.964246 239.620789 731.884645 256.1708 731.884645h202.616318c16.550011 0 26.893768-17.920399 18.618762-32.257995l-46.095164-79.860826z" fill="#FFFFFF" opacity=".4" /><path d="M466.90569 529.957911c1.361609 24.031676 21.20949 43.098987 45.493375 43.098987s44.131766-19.067311 45.493375-43.098987H466.90569z" fill="#E149C4" /></svg>