<?xml version="1.0" standalone="no"?><!DOCTYPE svg PUBLIC "-//W3C//DTD SVG 1.1//EN" "http://www.w3.org/Graphics/SVG/1.1/DTD/svg11.dtd"><svg class="icon" width="200px" height="200.00px" viewBox="0 0 1024 1024" version="1.1" xmlns="http://www.w3.org/2000/svg"><path d="M512 512m-512 0a512 512 0 1 0 1024 0 512 512 0 1 0-1024 0Z" fill="#FF8F41" /><path d="M244.227592 307.279813m71.831644 0l391.881528 0q71.831645 0 71.831644 71.831645l0 265.777084q0 71.831645-71.831644 71.831645l-391.881528 0q-71.831645 0-71.831644-71.831645l0-265.777084q0-71.831645 71.831644-71.831645Z" fill="#FFFFFF" /><path d="M244.227592 394.275916h535.544816v78.216679H244.227592z" fill="#FF7730" fill-opacity=".3" /><path d="M695.659947 577.047545H609.250469a10.375682 10.375682 0 0 0-9.626238 6.503956l-16.049584 39.906469c-2.741574 6.818419 2.277861 14.247408 9.626238 14.247408h88.346538a10.375682 10.375682 0 0 0 9.782672-6.916589l14.111726-39.906469c2.388003-6.751376-2.620259-13.834775-9.781874-13.834775z" fill="#FF7730" /></svg>