<?xml version="1.0" standalone="no"?><!DOCTYPE svg PUBLIC "-//W3C//DTD SVG 1.1//EN" "http://www.w3.org/Graphics/SVG/1.1/DTD/svg11.dtd"><svg class="icon" width="200px" height="200.00px" viewBox="0 0 1024 1024" version="1.1" xmlns="http://www.w3.org/2000/svg"><path d="M512 512m-512 0a512 512 0 1 0 1024 0 512 512 0 1 0-1024 0Z" fill="#FF5E7C" /><path d="M641.518042 336.8106m44.220556 13.691086l129.288705 40.028958q44.220556 13.691086 30.52947 57.911642l-76.21615 246.168971q-13.691086 44.220556-57.911642 30.52947l-129.288706-40.028959q-44.220556-13.691086-30.529469-57.911641l76.21615-246.168971q13.691086-44.220556 57.911642-30.52947Z" fill="#FFFFFF" opacity=".4" /><path d="M385.060775 336.802747m-44.220556 13.691085l-132.216411 40.935403q-44.220556 13.691086-30.52947 57.911641l77.609101 250.668032q13.691086 44.220556 57.911641 30.52947l132.216411-40.935403q44.220556-13.691086 30.52947-57.911641l-77.6091-250.668032q-13.691086-44.220556-57.911642-30.52947Z" fill="#FFFFFF" opacity=".4" /><path d="M396.130769 259.39205h57.742266c3.431956 0 6.20785 2.727208 6.744193 6.116863C464.507311 290.085712 485.789431 308.876072 511.460465 308.876072s46.953154-18.79036 50.844034-43.367159c0.536343-3.389655 3.312237-6.116864 6.743395-6.116863h61.732913c35.263751 0 63.850351 28.5866 63.850351 63.850351v376.717069c0 35.263751-28.5866 63.850351-63.850351 63.850351h-61.455962a6.385035 6.385035 0 0 1-6.385035-6.385035v-8.380359c0-28.431763-23.04838-51.479345-51.479345-51.479345s-51.479345 23.047582-51.479346 51.479345V757.424786a6.385035 6.385035 0 0 1-6.385035 6.385035h-57.465315c-35.262952 0-63.850351-28.5866-63.850351-63.850351V323.242401c0-35.263751 28.587398-63.850351 63.850351-63.850351z" fill="#FFFFFF" /><path d="M384.698363 393.477786m8.779423 0l31.127046 0q8.779423 0 8.779424 8.779424l0 0q0 8.779423-8.779424 8.779423l-31.127046 0q-8.779423 0-8.779423-8.779423l0 0q0-8.779423 8.779423-8.779424Z" fill="#FC5880" /><path d="M453.33749 393.477786m8.779423 0l31.127046 0q8.779423 0 8.779424 8.779424l0 0q0 8.779423-8.779424 8.779423l-31.127046 0q-8.779423 0-8.779423-8.779423l0 0q0-8.779423 8.779423-8.779424Z" fill="#FC5880" /><path d="M521.976617 393.477786m8.779424 0l31.127046 0q8.779423 0 8.779423 8.779424l0 0q0 8.779423-8.779423 8.779423l-31.127046 0q-8.779423 0-8.779424-8.779423l0 0q0-8.779423 8.779424-8.779424Z" fill="#FC5880" /><path d="M590.615744 393.477786m8.779424 0l31.127046 0q8.779423 0 8.779423 8.779424l0 0q0 8.779423-8.779423 8.779423l-31.127046 0q-8.779423 0-8.779424-8.779423l0 0q0-8.779423 8.779424-8.779424Z" fill="#FC5880" /><path d="M512.895501 510.173082a13.537871 13.537871 0 0 1 13.535476 13.534678v94.745141a13.536274 13.536274 0 0 1-27.070154 0V523.70776a13.536274 13.536274 0 0 1 13.534678-13.534678z" fill="#FC5880" /><path d="M487.46231 474.859847l25.432393 25.418825 25.445961-25.418825a13.536274 13.536274 0 0 1 17.866126-1.122968l1.272219 1.122968a13.537072 13.537072 0 0 1 0 19.139143l-28.748621 28.720686a13.531486 13.531486 0 0 1-15.835685 2.395984 13.50834 13.50834 0 0 1-15.835685-2.409552l-28.74862-28.720686a13.536274 13.536274 0 0 1 19.138344-19.139143l0.013568 0.013568zM479.056412 537.242438h67.674986c9.022853 0 13.534678 4.511825 13.534678 13.534678 0 9.023651-4.511825 13.535476-13.534678 13.535476h-67.674986c-9.023651 0-13.534678-4.511825-13.534679-13.535476 0-9.022853 4.511027-13.534678 13.534679-13.534678zM479.056412 577.84727h67.674986c9.022853 0 13.534678 4.511825 13.534678 13.534679 0 9.023651-4.511825 13.535476-13.534678 13.535476h-67.674986c-9.023651 0-13.534678-4.511825-13.534679-13.535476 0-9.022853 4.511027-13.534678 13.534679-13.534679z" fill="#FC5880" /></svg>