<?xml version="1.0" standalone="no"?><!DOCTYPE svg PUBLIC "-//W3C//DTD SVG 1.1//EN" "http://www.w3.org/Graphics/SVG/1.1/DTD/svg11.dtd"><svg class="icon" width="200px" height="200.00px" viewBox="0 0 1024 1024" version="1.1" xmlns="http://www.w3.org/2000/svg"><path d="M512 512m-512 0a512 512 0 1 0 1024 0 512 512 0 1 0-1024 0Z" fill="#50DCB6" /><path d="M380.707716 254.603274m66.244739 0l300.894778 0q66.244739 0 66.244739 66.244738l0 222.678099q0 66.244739-66.244739 66.244739l-300.894778 0q-66.244739 0-66.244739-66.244739l0-222.678099q0-66.244739 66.244739-66.244738Z" fill="#FFFFFF" opacity=".4" /><path d="M209.908028 392.679657c0-35.263751 28.5866-63.850351 63.850351-63.850351h412.632891c35.263751 0 63.850351 28.5866 63.850351 63.850351v353.149905c0 19.511071-22.08424 30.83094-37.923916 19.439239l-109.053206-78.427386a23.943083 23.943083 0 0 0-13.979236-4.504642H371.247489a23.947074 23.947074 0 0 0-13.956091 4.487084l-109.483398 78.532738c-15.842868 11.364564-37.899972 0.041503-37.899972-19.456V392.679657z" fill="#FFFFFF" /><path d="M539.535464 487.657054m20.751364 0l63.85035 0q20.751364 0 20.751364 20.751364l0 0q0 20.751364-20.751364 20.751364l-63.85035 0q-20.751364 0-20.751364-20.751364l0 0q0-20.751364 20.751364-20.751364Z" fill="#3BD1A9" /><path d="M320.848012 487.657054m20.751364 0l77.418551 0q20.751364 0 20.751364 20.751364l0 0q0 20.751364-20.751364 20.751364l-77.418551 0q-20.751364 0-20.751364-20.751364l0 0q0-20.751364 20.751364-20.751364Z" fill="#3BD1A9" /><path d="M359.557288 567.869057m0-20.751364l0-77.41855q0-20.751364 20.751364-20.751364l0 0q20.751364 0 20.751364 20.751364l0 77.41855q0 20.751364-20.751364 20.751364l0 0q-20.751364 0-20.751364-20.751364Z" fill="#3BD1A9" /></svg>