<?xml version="1.0" standalone="no"?><!DOCTYPE svg PUBLIC "-//W3C//DTD SVG 1.1//EN" "http://www.w3.org/Graphics/SVG/1.1/DTD/svg11.dtd"><svg class="icon" width="200px" height="200.00px" viewBox="0 0 1024 1024" version="1.1" xmlns="http://www.w3.org/2000/svg"><path d="M512 512m-512 0a512 512 0 1 0 1024 0 512 512 0 1 0-1024 0Z" fill="#FF8F41" /><path d="M592.672524 274.155049c21.817665-21.817665 57.192355-21.817665 79.010818 0l166.639838 166.640636c21.820857 21.818463 21.820857 57.192355 0 79.010819L599.437468 758.692215a39.904873 39.904873 0 0 1-32.087195 11.500246l-178.953378-17.431145c-15.184412-1.478934-27.200249-13.49557-28.679183-28.679982L342.285768 545.128754a39.908065 39.908065 0 0 1 11.500246-32.087195l238.88651-238.88651z" fill="#FFFFFF" opacity=".4" /><path d="M174.790335 457.533256c-15.427841-26.72217-6.272499-60.890887 20.449671-76.318728l204.091261-117.832629c26.72217-15.427841 60.890887-6.272499 76.318728 20.449671l168.917699 292.574279a39.904873 39.904873 0 0 1 2.803829 33.969983l-63.153584 168.343844c-5.359439 14.28492-20.075348 22.777814-35.125674 20.279669l-177.366697-29.478909a39.906469 39.906469 0 0 1-28.017534-19.412901L174.790335 457.533256z" fill="#FFFFFF" /><path d="M552.305534 724.701481c0 18.513409-15.008025 33.521434-33.521434 33.521434s-33.521434-15.008025-33.521434-33.521434 15.008025-33.521434 33.521434-33.521434 33.521434 15.008025 33.521434 33.521434z" fill="#FF762F" /></svg>