<?xml version="1.0" standalone="no"?><!DOCTYPE svg PUBLIC "-//W3C//DTD SVG 1.1//EN" "http://www.w3.org/Graphics/SVG/1.1/DTD/svg11.dtd"><svg class="icon" width="200px" height="200.00px" viewBox="0 0 1024 1024" version="1.1" xmlns="http://www.w3.org/2000/svg"><path d="M512 512m-512 0a512 512 0 1 0 1024 0 512 512 0 1 0-1024 0Z" fill="#FF5E7C" /><path d="M626.555511 485.736754c-20.250937 11.672642-20.250937 40.853849 0 52.526492l151.549605 87.352866c20.247744 11.672642 45.564408-2.917961 45.564409-26.263245V424.647133c0-23.345284-25.316664-37.935888-45.564409-26.263245L626.555511 485.736754z" fill="#FFFFFF" opacity=".4" /><path d="M237.044427 305.683554m66.244739 0l359.956352 0q66.244739 0 66.244739 66.244739l0 280.143414q0 66.244739-66.244739 66.244739l-359.956352 0q-66.244739 0-66.244739-66.244739l0-280.143414q0-66.244739 66.244739-66.244739Z" fill="#FFFFFF" /><path d="M553.502728 496.102859c12.237718 7.065041 12.237718 24.729241 0 31.79508L461.917381 580.774809c-12.237718 7.065041-27.535464-1.767058-27.535464-15.897939V459.12313c0-14.130881 15.297746-22.962981 27.535464-15.897141l91.585347 52.87687z" fill="#FF6C96" /></svg>