<?xml version="1.0" standalone="no"?><!DOCTYPE svg PUBLIC "-//W3C//DTD SVG 1.1//EN" "http://www.w3.org/Graphics/SVG/1.1/DTD/svg11.dtd"><svg class="icon" width="200px" height="200.00px" viewBox="0 0 1024 1024" version="1.1" xmlns="http://www.w3.org/2000/svg"><path d="M512 512m-512 0a512 512 0 1 0 1024 0 512 512 0 1 0-1024 0Z" fill="#FF8F41" /><path d="M625.479632 231.109537a64.64848 64.64848 0 0 1 55.434076-31.384842h131.997032c12.075698 0.000798 19.777646 12.892982 14.055059 23.528056L636.644664 576.889515 473.254011 484.790173l152.225621-253.680636z" fill="#FFFFFF" opacity=".4" /><path d="M399.194787 230.913995a63.847956 63.847956 0 0 0-54.749281-30.996951H211.996733c-12.077294 0-19.779242 12.892184-14.055857 23.527258l190.321135 353.636764 163.391451-92.098544-152.458675-254.068527z" fill="#FFFFFF" opacity=".4" /><path d="M512.399065 586.018519m-253.007015 0a253.007015 253.007015 0 1 0 506.01403 0 253.007015 253.007015 0 1 0-506.01403 0Z" fill="#FFFFFF" /><path d="M501.871738 489.803224c5.088873-7.188751 15.755872-7.188751 20.845543 0l26.856256 37.938282a12.767676 12.767676 0 0 0 6.62607 4.814316l44.380783 13.818812c8.409889 2.618663 11.706164 12.763685 6.441702 19.825534L579.240006 603.465627a12.772465 12.772465 0 0 0-2.531666 7.789743l0.572259 46.478267c0.108546 8.807358-8.521627 15.077462-16.864474 12.252882L516.389712 655.079857a12.77007 12.77007 0 0 0-8.191202 0l-44.026413 14.906662c-8.342846 2.82458-16.973019-3.445525-16.864474-12.252882l0.572259-46.478267a12.771666 12.771666 0 0 0-2.530869-7.789743l-27.782884-37.265459c-5.264461-7.061849-1.968187-17.206871 6.441703-19.825534l44.380782-13.818812a12.764483 12.764483 0 0 0 6.62607-4.814316l26.857054-37.938282z" fill="#FF7831" /></svg>